<svg width="50" height="50" viewBox="0 0 50 50" fill="none" xmlns="http://www.w3.org/2000/svg">
<rect width="50" height="50" rx="25" fill="#FDE885"/>
<path fill-rule="evenodd" clip-rule="evenodd" d="M17.7014 27.3713C17.7527 27.3871 17.8051 27.3994 17.8581 27.4081C18.194 28.1996 18.528 28.9919 18.8601 29.785C19.4573 31.2121 20.0593 32.6819 20.191 33.1045C20.3561 33.6245 20.5294 33.9783 20.7194 34.2205C20.8179 34.344 20.9307 34.4532 21.0637 34.5363C21.1335 34.5787 21.2075 34.6137 21.2845 34.6408C21.6644 34.7833 22.0111 34.7239 22.2283 34.6515C22.3559 34.6081 22.4772 34.5483 22.5893 34.4734L22.5952 34.471L25.9503 32.3791L29.8267 35.3496C29.8837 35.3931 29.9454 35.4299 30.0119 35.46C30.4773 35.6618 30.9284 35.7331 31.3535 35.6761C31.7761 35.6167 32.1121 35.4398 32.3626 35.2392C32.65 35.0071 32.8793 34.7111 33.0322 34.3749L33.0429 34.3487L33.0465 34.3392L33.0488 34.3345V34.3321L33.05 34.3309C33.0695 34.2795 33.0854 34.2267 33.0975 34.173L36.6355 16.3348C36.6453 16.2775 36.6508 16.2195 36.6521 16.1614C36.6521 15.639 36.455 15.1416 35.9932 14.8412C35.5967 14.5836 35.1562 14.5717 34.8772 14.5931C34.578 14.6168 34.3002 14.6904 34.1138 14.7498C34.0097 14.7834 33.9067 14.8206 33.8051 14.8614L33.7921 14.8673L13.9485 22.6509L13.9462 22.6521C13.8789 22.6764 13.8127 22.7037 13.7479 22.734C13.5905 22.8046 13.4395 22.8888 13.2967 22.9857C13.0272 23.1697 12.4063 23.6755 12.512 24.5113C12.5951 25.1761 13.051 25.5857 13.33 25.7828C13.482 25.8908 13.6268 25.968 13.7336 26.0191C13.7811 26.0428 13.8832 26.0832 13.9272 26.1022L13.939 26.1057L17.7014 27.3713ZM34.4866 16.5057H34.4842L34.4534 16.5188L14.5861 24.313L14.5552 24.3249L14.5433 24.3284C14.507 24.3425 14.4713 24.3584 14.4365 24.3759C14.4697 24.3946 14.5038 24.4116 14.5386 24.427L18.2689 25.6831C18.3348 25.7075 18.3983 25.7377 18.4589 25.7733L30.7788 18.5608L30.7907 18.5549C30.8388 18.5263 30.8879 18.4993 30.9379 18.4742C31.0234 18.4302 31.16 18.3661 31.3143 18.3186C31.4211 18.2854 31.7381 18.1916 32.0801 18.302C32.2617 18.3587 32.4236 18.4655 32.5471 18.6103C32.6707 18.755 32.7507 18.9317 32.7782 19.12C32.8224 19.2847 32.8236 19.4581 32.7817 19.6234C32.6986 19.9499 32.4707 20.204 32.2629 20.3987C32.0848 20.5649 29.7744 22.7921 27.4961 24.9909L24.3939 27.9828L23.8418 28.517L30.8133 33.862C30.9074 33.9013 31.0096 33.9176 31.1113 33.9095C31.1625 33.9024 31.2107 33.881 31.2502 33.8477C31.2982 33.807 31.3395 33.7589 31.3725 33.7053L31.3748 33.7041L34.806 16.4024C34.698 16.429 34.5921 16.4631 34.489 16.5045L34.4866 16.5057ZM24.4414 31.2204L23.0499 30.1542L22.7127 32.2972L24.4414 31.2204ZM21.7736 28.0386L23.1568 26.7029L26.259 23.7087L27.4142 22.5951L19.6734 27.1268L19.715 27.2241C20.2032 28.3774 20.686 29.533 21.1634 30.6909L21.4994 28.5538C21.5301 28.3557 21.6267 28.1749 21.7736 28.0386Z" fill="#280404"/>
</svg>
