<svg width="30" height="30" viewBox="0 0 30 30" fill="none" xmlns="http://www.w3.org/2000/svg">
<path d="M15.6725 0.937502C15.0856 0.937502 14.585 1.025 14.2087 1.12313C13.5981 1.28188 13.265 1.8475 13.2525 2.41688L12.85 21.1281V21.1344C12.85 22.3675 11.8631 23.3606 10.6531 23.3606C9.44313 23.3606 8.45625 22.3669 8.45625 21.1344C8.45625 20.4794 8.69125 19.9863 9.05562 19.6313C9.42438 19.2713 9.94313 19.0394 10.5244 18.95C10.9719 18.8813 11.3875 18.525 11.4119 18.0144L11.5887 14.1875C11.6131 13.6594 11.1875 13.1913 10.6306 13.23C6.45125 13.5206 2.8125 16.5138 2.8125 21.1344C2.8125 25.5094 6.31938 29.0625 10.6531 29.0625C14.9869 29.0625 18.4944 25.51 18.4944 21.1344L18.29 11.6313C20.2488 12.9188 23.0606 13.6806 25.6588 13.8113C26.2425 13.8406 26.9094 13.5731 27.075 12.8831C27.1413 12.6088 27.1875 12.2613 27.1875 11.8269C27.1875 11.3925 27.1413 11.0456 27.075 10.7706C26.9094 10.0806 26.2394 9.83938 25.7119 9.77875C23.9019 9.5675 22.1269 8.60875 20.7394 7.245C19.3519 5.88125 18.3744 4.135 18.1331 2.37813C18.06 1.84875 17.75 1.28313 17.135 1.12313C16.6574 0.99943 16.1659 0.937053 15.6725 0.937502Z" fill="#FDE885"/>
</svg>
