<svg width="50" height="50" viewBox="0 0 50 50" fill="none" xmlns="http://www.w3.org/2000/svg">
<rect x="0.75" y="0.75" width="48.5" height="48.5" rx="24.25" fill="#FDE885"/>
<rect x="0.75" y="0.75" width="48.5" height="48.5" rx="24.25" stroke="#FDE885" stroke-width="1.5"/>
<mask id="path-2-inside-1_162_138" fill="white">
<path fill-rule="evenodd" clip-rule="evenodd" d="M37.2851 30.7211C36.6538 29.4499 35.822 28.2886 34.8216 27.2818C34.4866 26.9041 34.1362 26.5402 33.7715 26.191L33.7274 26.1481C33.5919 26.0168 33.458 25.8837 33.3259 25.7489C34.6937 23.8469 35.864 21.8104 36.8186 19.671L36.8569 19.5851L36.8836 19.4946C37.0101 19.0734 37.154 18.2728 36.6434 17.5487C36.1143 16.8014 35.2684 16.6668 34.701 16.6668H32.0936C31.5476 16.6416 31.0076 16.7899 30.5511 17.0905C30.0946 17.3911 29.745 17.8285 29.5524 18.3401C28.9914 19.6764 28.2888 20.9488 27.4568 22.1356V19.0804C27.4568 18.6858 27.4197 18.0244 26.9962 17.4675C26.4903 16.7991 25.7581 16.6668 25.2498 16.6668H21.112C20.5721 16.6544 20.048 16.8501 19.6484 17.2134C19.2488 17.5768 19.0042 18.0799 18.9653 18.6185L18.9619 18.6708V18.723C18.9619 19.2858 19.1847 19.7012 19.3633 19.9622C19.4434 20.0794 19.5281 20.1862 19.5827 20.2535L19.5943 20.2686C19.6523 20.3405 19.6906 20.3881 19.7289 20.4415C19.831 20.5784 19.976 20.7919 20.0178 21.3419V23.0511C19.1873 21.6602 18.5062 20.1853 17.986 18.651L17.9767 18.6255L17.9674 18.6011C17.8259 18.231 17.5996 17.6926 17.1459 17.2818C16.6168 16.8003 15.9902 16.6668 15.4205 16.6668H12.7748C12.1981 16.6668 11.5031 16.8014 10.9844 17.348C10.475 17.8864 10.417 18.5315 10.417 18.8727V19.0282L10.4495 19.179C11.1808 22.5802 12.6905 25.7655 14.86 28.4851C15.8513 30.0485 17.1972 31.3562 18.7885 32.3022C20.3798 33.2481 22.1716 33.8056 24.0187 33.9295L24.0663 33.9329H24.115C24.9574 33.9329 25.8358 33.8598 26.4961 33.4201C27.3861 32.826 27.4568 31.9151 27.4568 31.4602V30.1397C27.6854 30.3254 27.9686 30.5737 28.3155 30.9079C28.7356 31.3279 29.0697 31.6923 29.3563 32.0102L29.5095 32.1796C29.7323 32.428 29.9516 32.6728 30.1512 32.8735C30.4018 33.1253 30.7116 33.4027 31.0992 33.608C31.5204 33.8297 31.9625 33.9306 32.4313 33.9306H35.0781C35.6362 33.9306 36.4357 33.7983 36.9985 33.1462C37.6111 32.4361 37.5647 31.5647 37.3721 30.9392L37.3373 30.8267L37.2851 30.7211ZM30.6478 30.8441C30.2883 30.442 29.918 30.0497 29.5374 29.6675L29.5339 29.664C27.9593 28.1462 27.2248 27.8828 26.7049 27.8828C26.4276 27.8828 26.1224 27.913 25.924 28.1613C25.8357 28.2804 25.7772 28.4188 25.7534 28.5651C25.7258 28.7354 25.7133 28.9078 25.7163 29.0803V31.4602C25.7163 31.7561 25.6676 31.8803 25.5306 31.9708C25.3485 32.0926 24.9598 32.1912 24.1255 32.1912C22.5407 32.0834 21.0041 31.601 19.642 30.7836C18.28 29.9662 17.1314 28.8372 16.2907 27.4895L16.2814 27.4744L16.2698 27.4605C14.2487 24.9468 12.8407 21.997 12.1575 18.8448C12.1622 18.694 12.1947 18.6023 12.248 18.5466C12.3026 18.4886 12.436 18.4074 12.7748 18.4074H15.4205C15.714 18.4074 15.8672 18.4723 15.9774 18.571C16.1004 18.6847 16.2095 18.8761 16.3395 19.2173C16.9893 21.1272 17.8665 22.9142 18.6985 24.2277C19.1139 24.8833 19.5223 25.4298 19.8913 25.8162C20.0758 26.0089 20.2557 26.169 20.4286 26.2827C20.5945 26.3918 20.7836 26.4788 20.9786 26.4788C21.0807 26.4788 21.2002 26.4672 21.3151 26.4173C21.4393 26.3627 21.5415 26.2679 21.6052 26.1481C21.7247 25.93 21.7583 25.6085 21.7583 25.1873V21.2734C21.6968 20.3243 21.4102 19.7893 21.1317 19.4099C21.0752 19.3341 21.0172 19.2594 20.9577 19.186L20.9426 19.1674C20.8933 19.1071 20.8461 19.0452 20.801 18.9817C20.7445 18.9104 20.7102 18.8241 20.7024 18.7334C20.7115 18.6412 20.7555 18.556 20.8254 18.4951C20.8953 18.4343 20.9858 18.4025 21.0784 18.4062H25.2498C25.4889 18.4062 25.5689 18.4642 25.6096 18.5188C25.6676 18.5942 25.7163 18.7508 25.7163 19.0804V24.3345C25.7163 24.9587 26.0041 25.3811 26.4218 25.3811C26.9022 25.3811 27.2491 25.0899 27.8548 24.4842L27.8653 24.4725L27.8746 24.4621C29.2335 22.8055 30.3436 20.9597 31.17 18.9829L31.1746 18.969C31.2364 18.7941 31.3539 18.6443 31.509 18.5427C31.6641 18.441 31.8483 18.3931 32.0333 18.4062H34.7021C35.0641 18.4062 35.1825 18.499 35.222 18.5536C35.2626 18.6116 35.2916 18.7357 35.222 18.9794C34.269 21.1103 33.0907 23.1331 31.7072 25.0133L31.698 25.0272C31.5645 25.2326 31.4171 25.46 31.3963 25.7199C31.3731 26.0007 31.4937 26.2549 31.7061 26.5287C31.8604 26.7561 32.1795 27.0683 32.5032 27.385L32.5334 27.4152C32.8722 27.7471 33.2401 28.1068 33.5348 28.4549L33.5429 28.463L33.551 28.4723C34.4298 29.349 35.1606 30.3624 35.7151 31.473C35.8033 31.7747 35.7499 31.9302 35.6803 32.0102C35.6002 32.1031 35.4204 32.1901 35.0792 32.1901H32.4313C32.2508 32.195 32.0721 32.153 31.9126 32.0682C31.7174 31.9539 31.5399 31.8116 31.3858 31.6459C31.2199 31.4799 31.04 31.2792 30.8196 31.0344L30.6478 30.8441Z"/>
</mask>
<path fill-rule="evenodd" clip-rule="evenodd" d="M37.2851 30.7211C36.6538 29.4499 35.822 28.2886 34.8216 27.2818C34.4866 26.9041 34.1362 26.5402 33.7715 26.191L33.7274 26.1481C33.5919 26.0168 33.458 25.8837 33.3259 25.7489C34.6937 23.8469 35.864 21.8104 36.8186 19.671L36.8569 19.5851L36.8836 19.4946C37.0101 19.0734 37.154 18.2728 36.6434 17.5487C36.1143 16.8014 35.2684 16.6668 34.701 16.6668H32.0936C31.5476 16.6416 31.0076 16.7899 30.5511 17.0905C30.0946 17.3911 29.745 17.8285 29.5524 18.3401C28.9914 19.6764 28.2888 20.9488 27.4568 22.1356V19.0804C27.4568 18.6858 27.4197 18.0244 26.9962 17.4675C26.4903 16.7991 25.7581 16.6668 25.2498 16.6668H21.112C20.5721 16.6544 20.048 16.8501 19.6484 17.2134C19.2488 17.5768 19.0042 18.0799 18.9653 18.6185L18.9619 18.6708V18.723C18.9619 19.2858 19.1847 19.7012 19.3633 19.9622C19.4434 20.0794 19.5281 20.1862 19.5827 20.2535L19.5943 20.2686C19.6523 20.3405 19.6906 20.3881 19.7289 20.4415C19.831 20.5784 19.976 20.7919 20.0178 21.3419V23.0511C19.1873 21.6602 18.5062 20.1853 17.986 18.651L17.9767 18.6255L17.9674 18.6011C17.8259 18.231 17.5996 17.6926 17.1459 17.2818C16.6168 16.8003 15.9902 16.6668 15.4205 16.6668H12.7748C12.1981 16.6668 11.5031 16.8014 10.9844 17.348C10.475 17.8864 10.417 18.5315 10.417 18.8727V19.0282L10.4495 19.179C11.1808 22.5802 12.6905 25.7655 14.86 28.4851C15.8513 30.0485 17.1972 31.3562 18.7885 32.3022C20.3798 33.2481 22.1716 33.8056 24.0187 33.9295L24.0663 33.9329H24.115C24.9574 33.9329 25.8358 33.8598 26.4961 33.4201C27.3861 32.826 27.4568 31.9151 27.4568 31.4602V30.1397C27.6854 30.3254 27.9686 30.5737 28.3155 30.9079C28.7356 31.3279 29.0697 31.6923 29.3563 32.0102L29.5095 32.1796C29.7323 32.428 29.9516 32.6728 30.1512 32.8735C30.4018 33.1253 30.7116 33.4027 31.0992 33.608C31.5204 33.8297 31.9625 33.9306 32.4313 33.9306H35.0781C35.6362 33.9306 36.4357 33.7983 36.9985 33.1462C37.6111 32.4361 37.5647 31.5647 37.3721 30.9392L37.3373 30.8267L37.2851 30.7211ZM30.6478 30.8441C30.2883 30.442 29.918 30.0497 29.5374 29.6675L29.5339 29.664C27.9593 28.1462 27.2248 27.8828 26.7049 27.8828C26.4276 27.8828 26.1224 27.913 25.924 28.1613C25.8357 28.2804 25.7772 28.4188 25.7534 28.5651C25.7258 28.7354 25.7133 28.9078 25.7163 29.0803V31.4602C25.7163 31.7561 25.6676 31.8803 25.5306 31.9708C25.3485 32.0926 24.9598 32.1912 24.1255 32.1912C22.5407 32.0834 21.0041 31.601 19.642 30.7836C18.28 29.9662 17.1314 28.8372 16.2907 27.4895L16.2814 27.4744L16.2698 27.4605C14.2487 24.9468 12.8407 21.997 12.1575 18.8448C12.1622 18.694 12.1947 18.6023 12.248 18.5466C12.3026 18.4886 12.436 18.4074 12.7748 18.4074H15.4205C15.714 18.4074 15.8672 18.4723 15.9774 18.571C16.1004 18.6847 16.2095 18.8761 16.3395 19.2173C16.9893 21.1272 17.8665 22.9142 18.6985 24.2277C19.1139 24.8833 19.5223 25.4298 19.8913 25.8162C20.0758 26.0089 20.2557 26.169 20.4286 26.2827C20.5945 26.3918 20.7836 26.4788 20.9786 26.4788C21.0807 26.4788 21.2002 26.4672 21.3151 26.4173C21.4393 26.3627 21.5415 26.2679 21.6052 26.1481C21.7247 25.93 21.7583 25.6085 21.7583 25.1873V21.2734C21.6968 20.3243 21.4102 19.7893 21.1317 19.4099C21.0752 19.3341 21.0172 19.2594 20.9577 19.186L20.9426 19.1674C20.8933 19.1071 20.8461 19.0452 20.801 18.9817C20.7445 18.9104 20.7102 18.8241 20.7024 18.7334C20.7115 18.6412 20.7555 18.556 20.8254 18.4951C20.8953 18.4343 20.9858 18.4025 21.0784 18.4062H25.2498C25.4889 18.4062 25.5689 18.4642 25.6096 18.5188C25.6676 18.5942 25.7163 18.7508 25.7163 19.0804V24.3345C25.7163 24.9587 26.0041 25.3811 26.4218 25.3811C26.9022 25.3811 27.2491 25.0899 27.8548 24.4842L27.8653 24.4725L27.8746 24.4621C29.2335 22.8055 30.3436 20.9597 31.17 18.9829L31.1746 18.969C31.2364 18.7941 31.3539 18.6443 31.509 18.5427C31.6641 18.441 31.8483 18.3931 32.0333 18.4062H34.7021C35.0641 18.4062 35.1825 18.499 35.222 18.5536C35.2626 18.6116 35.2916 18.7357 35.222 18.9794C34.269 21.1103 33.0907 23.1331 31.7072 25.0133L31.698 25.0272C31.5645 25.2326 31.4171 25.46 31.3963 25.7199C31.3731 26.0007 31.4937 26.2549 31.7061 26.5287C31.8604 26.7561 32.1795 27.0683 32.5032 27.385L32.5334 27.4152C32.8722 27.7471 33.2401 28.1068 33.5348 28.4549L33.5429 28.463L33.551 28.4723C34.4298 29.349 35.1606 30.3624 35.7151 31.473C35.8033 31.7747 35.7499 31.9302 35.6803 32.0102C35.6002 32.1031 35.4204 32.1901 35.0792 32.1901H32.4313C32.2508 32.195 32.0721 32.153 31.9126 32.0682C31.7174 31.9539 31.5399 31.8116 31.3858 31.6459C31.2199 31.4799 31.04 31.2792 30.8196 31.0344L30.6478 30.8441Z" fill="#FDE885" stroke="#280404" stroke-width="1.67091" mask="url(#path-2-inside-1_162_138)"/>
</svg>
