<svg width="30" height="30" viewBox="0 0 30 30" fill="none" xmlns="http://www.w3.org/2000/svg">
<path d="M26.88 22.9756H24.0275C22.9487 22.9756 22.6238 22.1018 20.69 20.1668C19 18.5381 18.2862 18.3356 17.8587 18.3356C17.2675 18.3356 17.1063 18.4981 17.1063 19.3118V21.8768C17.1063 22.5706 16.8813 22.9768 15.0688 22.9768C13.3104 22.8587 11.6052 22.3245 10.0937 21.4183C8.58222 20.512 7.30766 19.2597 6.375 17.7643C4.16127 15.0076 2.62051 11.7729 1.875 8.31682C1.875 7.88932 2.0375 7.50182 2.8525 7.50182H5.7025C6.435 7.50182 6.69875 7.82807 6.98625 8.58182C8.37 12.6543 10.7312 16.1968 11.69 16.1968C12.0575 16.1968 12.2175 16.0343 12.2175 15.1181V10.9231C12.0963 9.00932 11.08 8.84807 11.08 8.15557C11.0929 7.97287 11.1764 7.80238 11.313 7.68031C11.4495 7.55825 11.6283 7.49421 11.8113 7.50182H16.2913C16.9038 7.50182 17.1063 7.80682 17.1063 8.53932V14.2018C17.1063 14.8131 17.3688 15.0156 17.5538 15.0156C17.9212 15.0156 18.2038 14.8131 18.8775 14.1406C20.3211 12.3789 21.5009 10.4167 22.38 8.31557C22.4696 8.06303 22.6395 7.84681 22.8636 7.70006C23.0878 7.55331 23.354 7.48411 23.6213 7.50307H26.4725C27.3275 7.50307 27.5087 7.93057 27.3275 8.54057C26.2902 10.8634 25.007 13.0685 23.5 15.1181C23.1925 15.5868 23.07 15.8306 23.5 16.3806C23.7825 16.8081 24.7825 17.6431 25.4538 18.4368C26.4313 19.4118 27.2425 20.5393 27.8563 21.7743C28.1012 22.5693 27.6938 22.9756 26.88 22.9756Z" fill="#FDE885"/>
</svg>
