<svg width="50" height="50" viewBox="0 0 50 50" fill="none" xmlns="http://www.w3.org/2000/svg">
<path d="M33.6482 16.3466C32.5885 15.2818 31.3263 14.4375 29.9353 13.863C28.5443 13.2884 27.0523 12.9951 25.5462 13.0001C19.2357 13.0001 14.0925 18.1175 14.0925 24.3965C14.0925 26.409 14.6241 28.364 15.6181 30.089L14 36L20.0678 34.413C21.7437 35.3215 23.6276 35.8045 25.5462 35.8045C31.8568 35.8045 37 30.687 37 24.408C37 21.3605 35.8095 18.497 33.6482 16.3466ZM25.5462 33.8725C23.8357 33.8725 22.1598 33.4125 20.692 32.55L20.3452 32.343L16.7392 33.286L17.6985 29.79L17.4673 29.4335C16.5168 27.9236 16.0121 26.1782 16.0111 24.3965C16.0111 19.1755 20.2874 14.9206 25.5347 14.9206C28.0774 14.9206 30.4698 15.9096 32.2613 17.7035C33.1485 18.582 33.8516 19.627 34.3297 20.7779C34.8079 21.9288 35.0516 23.1627 35.0467 24.408C35.0698 29.629 30.7935 33.8725 25.5462 33.8725ZM30.7703 26.7885C30.4814 26.6505 29.0714 25.9605 28.8171 25.857C28.5513 25.765 28.3663 25.719 28.1698 25.995C27.9734 26.2825 27.4301 26.9265 27.2683 27.1105C27.1065 27.306 26.9332 27.329 26.6442 27.1795C26.3553 27.0415 25.4307 26.731 24.3442 25.765C23.4889 25.006 22.9226 24.0745 22.7492 23.787C22.5874 23.4995 22.7261 23.35 22.8764 23.2005C23.0035 23.074 23.1653 22.867 23.304 22.706C23.4427 22.545 23.5005 22.4185 23.593 22.2345C23.6854 22.039 23.6392 21.878 23.5698 21.74C23.5005 21.602 22.9226 20.199 22.6915 19.624C22.4603 19.072 22.2176 19.141 22.0442 19.1295H21.4894C21.293 19.1295 20.9925 19.1985 20.7266 19.486C20.4724 19.7735 19.7327 20.4635 19.7327 21.8665C19.7327 23.2695 20.7613 24.6265 20.9 24.8105C21.0387 25.006 22.9226 27.881 25.7889 29.1115C26.4709 29.4105 27.0025 29.583 27.4186 29.7095C28.1005 29.928 28.7246 29.8935 29.2216 29.8245C29.7764 29.744 30.9206 29.1345 31.1518 28.4675C31.3945 27.8005 31.3945 27.237 31.3136 27.1105C31.2327 26.984 31.0593 26.9265 30.7703 26.7885Z" fill="#280404"/>
</svg>
